# xmcd CD database file
#
# Track frame offsets:
#	150
#	19495
#	41141
#	62984
#	83154
#	101107
#	120007
#	142359
#	164495
#	187039
#	203493
#	222975
#	244909
#	267126
#	292174
#	305212
#
# Disc length: 4649 seconds
#
# Revision: 0
# Processed by: cddbd v1.5.2PL0 Copyright (c) Steve Scherf et al.
# Submitted via: CDex 1.70beta2
#
DISCID=01122710
DTITLE=Hello!Project - ハロー!プロジェクトの全曲から集めちゃいました! Vol.5 tofubeats編
DYEAR=2014
DGENRE=Hello!Project
TTITLE0=インスピレ-ション!/モーニング娘。
TTITLE1=バンザイ!～人生はめっちゃワンダッホーッ!～/真野恵里菜
TTITLE2=THE マンパワー!!!/モーニング娘。
TTITLE3=抱きしめて・・・涙/音楽ガッタス
TTITLE4=恋の花/安倍なつみ 
TTITLE5=ENDLESS LOVE ～I LOVE YOU MORE～/℃-ute 
TTITLE6=ブスにならない哲学/ハロー!プロジェクト モベキマス 
TTITLE7=ガタメキラ(ZYX Ver.)/ZYX
TTITLE8=オンナ、哀しい、オトナ/セクシーオトナジャン
TTITLE9=うらはら/Buono!
TTITLE10=16歳の恋なんて/安倍なつみ&矢島舞美(℃-ute)
TTITLE11=オシャレ!/松浦亜弥
TTITLE12=天まで登れ!/Juice=Juice
TTITLE13=「、、、 好きだよ!」/モーニング娘。
TTITLE14=やる気!IT'S EASY (ハロー!プロジェクト2007 Winter～ワンダフルハーツ乙女Gocoro～Live音源)/田中れいな・徳永千奈美・熊井友里奈・梅田えりか・有原栞菜 
TTITLE15=tofubeatsの10分で楽しめる"ハロー!プロジェクトの全曲から集めちゃいました!Vol.5"
EXTD=YEAR: 2014
EXTT0=
EXTT1=
EXTT2=
EXTT3=
EXTT4=
EXTT5=
EXTT6=
EXTT7=
EXTT8=
EXTT9=
EXTT10=
EXTT11=
EXTT12=
EXTT13=
EXTT14=
EXTT15=
PLAYORDER=
